<svg width="40" height="60" viewBox="0 0 40 60" fill="none" xmlns="http://www.w3.org/2000/svg">
<g clip-path="url(#clip0_501_79)">
<path d="M30 0L40 5V7L10 22L0 17V15L30 0Z" fill="url(#paint0_linear_501_79)"/>
<path d="M20 20L30 25V26.5L10 37L0 32V30L20 20Z" fill="url(#paint1_linear_501_79)"/>
<path d="M10 40L0 45V47L10 52L20 47V45L10 40Z" fill="url(#paint2_linear_501_79)"/>
<path d="M0 30V40L10 45V35L0 30Z" fill="url(#paint3_linear_501_79)"/>
<path d="M10 50L0 45V55L10 60V50Z" fill="url(#paint4_linear_501_79)"/>
<path d="M10 20L0 15V25L10 30V20Z" fill="url(#paint5_linear_501_79)"/>
<path d="M10 30V20L40 5V15L10 30Z" fill="url(#paint6_linear_501_79)"/>
<path d="M30 35V25L10 35V45L30 35Z" fill="url(#paint7_linear_501_79)"/>
<path d="M20 55V45L10 50V60L20 55Z" fill="url(#paint8_linear_501_79)"/>
</g>
<defs>
<linearGradient id="paint0_linear_501_79" x1="20" y1="0" x2="20" y2="52" gradientUnits="userSpaceOnUse">
<stop stop-color="#4D4DFF"/>
<stop offset="1" stop-color="#1F1FAD"/>
</linearGradient>
<linearGradient id="paint1_linear_501_79" x1="20" y1="0" x2="20" y2="52" gradientUnits="userSpaceOnUse">
<stop stop-color="#4D4DFF"/>
<stop offset="1" stop-color="#1F1FAD"/>
</linearGradient>
<linearGradient id="paint2_linear_501_79" x1="20" y1="0" x2="20" y2="52" gradientUnits="userSpaceOnUse">
<stop stop-color="#4D4DFF"/>
<stop offset="1" stop-color="#1F1FAD"/>
</linearGradient>
<linearGradient id="paint3_linear_501_79" x1="5" y1="15" x2="5" y2="60" gradientUnits="userSpaceOnUse">
<stop stop-color="#6666FF"/>
<stop offset="1" stop-color="#3B3BDD"/>
</linearGradient>
<linearGradient id="paint4_linear_501_79" x1="5" y1="15" x2="5" y2="60" gradientUnits="userSpaceOnUse">
<stop stop-color="#6666FF"/>
<stop offset="1" stop-color="#3B3BDD"/>
</linearGradient>
<linearGradient id="paint5_linear_501_79" x1="5" y1="15" x2="5" y2="60" gradientUnits="userSpaceOnUse">
<stop stop-color="#6666FF"/>
<stop offset="1" stop-color="#3B3BDD"/>
</linearGradient>
<linearGradient id="paint6_linear_501_79" x1="25" y1="5" x2="25" y2="60" gradientUnits="userSpaceOnUse">
<stop stop-color="#6464E8"/>
<stop offset="1" stop-color="#3737E1"/>
</linearGradient>
<linearGradient id="paint7_linear_501_79" x1="25" y1="5" x2="25" y2="60" gradientUnits="userSpaceOnUse">
<stop stop-color="#6464E8"/>
<stop offset="1" stop-color="#3737E1"/>
</linearGradient>
<linearGradient id="paint8_linear_501_79" x1="25" y1="5" x2="25" y2="60" gradientUnits="userSpaceOnUse">
<stop stop-color="#6464E8"/>
<stop offset="1" stop-color="#3737E1"/>
</linearGradient>
<clipPath id="clip0_501_79">
<rect width="40" height="60" fill="white"/>
</clipPath>
</defs>
</svg>
